<?xml version="1.0" encoding="UTF-8" standalone="no"?><svg xmlns="http://www.w3.org/2000/svg" xmlns:xlink="http://www.w3.org/1999/xlink" contentScriptType="application/ecmascript" contentStyleType="text/css" height="173px" preserveAspectRatio="none" style="width:607px;height:173px;background:#FFFFFF;" version="1.1" viewBox="0 0 607 173" width="607px" zoomAndPan="magnify"><defs><filter height="300%" id="f690b9bdk8rn3" width="300%" x="-1" y="-1"><feGaussianBlur result="blurOut" stdDeviation="2.0"/><feColorMatrix in="blurOut" result="blurOut2" type="matrix" values="0 0 0 0 0 0 0 0 0 0 0 0 0 0 0 0 0 0 .4 0"/><feOffset dx="4.0" dy="4.0" in="blurOut2" result="blurOut3"/><feBlend in="SourceGraphic" in2="blurOut3" mode="normal"/></filter></defs><g><!--MD5=[d8f6c8d610e7598f6f260df6ce30ddc1]
entity jdk--><rect fill="#FEFECE" filter="url(#f690b9bdk8rn3)" height="46.2969" style="stroke:#A80036;stroke-width:1.5;" width="196" x="39.5" y="7"/><rect fill="#FEFECE" height="10" style="stroke:#A80036;stroke-width:1.5;" width="15" x="215.5" y="12"/><rect fill="#FEFECE" height="2" style="stroke:#A80036;stroke-width:1.5;" width="4" x="213.5" y="14"/><rect fill="#FEFECE" height="2" style="stroke:#A80036;stroke-width:1.5;" width="4" x="213.5" y="18"/><text fill="#000000" font-family="sans-serif" font-size="14" lengthAdjust="spacing" textLength="156" x="54.5" y="39.9951">Java Development Kit</text><!--MD5=[6a8438039885c65850bdbcf617edf5eb]
entity jre--><rect fill="#FEFECE" filter="url(#f690b9bdk8rn3)" height="46.2969" style="stroke:#A80036;stroke-width:1.5;" width="230" x="276.5" y="7"/><rect fill="#FEFECE" height="10" style="stroke:#A80036;stroke-width:1.5;" width="15" x="486.5" y="12"/><rect fill="#FEFECE" height="2" style="stroke:#A80036;stroke-width:1.5;" width="4" x="484.5" y="14"/><rect fill="#FEFECE" height="2" style="stroke:#A80036;stroke-width:1.5;" width="4" x="484.5" y="18"/><text fill="#000000" font-family="sans-serif" font-size="14" lengthAdjust="spacing" textLength="190" x="291.5" y="39.9951">Java Runtime Environment</text><!--MD5=[431bf97f09493fe295d612ad4ebfd9b8]
entity java--><polygon fill="#FEFECE" filter="url(#f690b9bdk8rn3)" points="16,130,16,166.2969,177,166.2969,177,140,167,130,16,130" style="stroke:#000000;stroke-width:1.5;"/><path d="M167,130 L167,140 L177,140 " fill="#FEFECE" style="stroke:#000000;stroke-width:1.5;"/><text fill="#000000" font-family="sans-serif" font-size="14" lengthAdjust="spacing" textLength="141" x="26" y="152.9951">Kode Java (File.java)</text><!--MD5=[f05ee254edca24d7fa39ea23f47586c1]
entity binary--><polygon fill="#FEFECE" filter="url(#f690b9bdk8rn3)" points="212,130,212,166.2969,387,166.2969,387,140,377,130,212,130" style="stroke:#000000;stroke-width:1.5;"/><path d="M377,130 L377,140 L387,140 " fill="#FEFECE" style="stroke:#000000;stroke-width:1.5;"/><text fill="#000000" font-family="sans-serif" font-size="14" lengthAdjust="spacing" textLength="155" x="222" y="152.9951">Java Binary (File.class)</text><!--MD5=[a8305b23d211bc1ccd9424c697ead2f2]
entity archive--><polygon fill="#FEFECE" filter="url(#f690b9bdk8rn3)" points="422.5,130,422.5,166.2969,590.5,166.2969,590.5,140,580.5,130,422.5,130" style="stroke:#000000;stroke-width:1.5;"/><path d="M580.5,130 L580.5,140 L590.5,140 " fill="#FEFECE" style="stroke:#000000;stroke-width:1.5;"/><text fill="#000000" font-family="sans-serif" font-size="14" lengthAdjust="spacing" textLength="148" x="432.5" y="152.9951">Java Archive (File.jar)</text><!--MD5=[0ce3fd63294443b8d3fdf26a1f98e351]
link jdk to java--><path d="M129.692,53.092 C122.378,73.7829 111.5124,104.5258 104.226,125.1411 " fill="none" id="jdk-to-java" style="stroke:#A80036;stroke-width:1.0;"/><polygon fill="#A80036" points="102.5462,129.8935,109.3169,122.741,104.2125,125.1793,101.7742,120.0749,102.5462,129.8935" style="stroke:#A80036;stroke-width:1.0;"/><text fill="#000000" font-family="sans-serif" font-size="13" lengthAdjust="spacing" textLength="52" x="119.5" y="96.0669">Compile</text><!--MD5=[d71fa750c96fb20bee9a38b9c8374897]
link jdk to binary--><path d="M168.352,53.092 C198.102,74.394 242.731,106.3506 271.486,126.9408 " fill="none" id="jdk-to-binary" style="stroke:#A80036;stroke-width:1.0;"/><polygon fill="#A80036" points="275.61,129.8935,270.6219,121.4012,271.545,126.9822,265.9639,127.9053,275.61,129.8935" style="stroke:#A80036;stroke-width:1.0;"/><text fill="#000000" font-family="sans-serif" font-size="13" lengthAdjust="spacing" textLength="40" x="234.5" y="96.0669">Binary</text><!--MD5=[afb64383f408f18f6825a6bf660fd480]
link jre to archive--><path d="M413.401,53.092 C434.26,74.1321 465.424,105.5664 485.856,126.1762 " fill="none" id="jre-to-archive" style="stroke:#A80036;stroke-width:1.0;"/><polygon fill="#A80036" points="489.541,129.8935,486.046,120.6856,486.0211,126.3424,480.3643,126.3175,489.541,129.8935" style="stroke:#A80036;stroke-width:1.0;"/><text fill="#000000" font-family="sans-serif" font-size="13" lengthAdjust="spacing" textLength="25" x="459.5" y="96.0669">Run</text><!--MD5=[345a6a1627ab5e9cbcf03e86abea4768]
link jre to binary--><path d="M373.435,53.204 C365.989,62.398 357.296,73.1865 349.5,83 C338.232,97.1843 325.681,113.2509 315.972,125.7379 " fill="none" id="jre-to-binary" style="stroke:#A80036;stroke-width:1.0;"/><polygon fill="#A80036" points="312.795,129.8275,321.4763,125.1762,315.8634,125.8797,315.1598,120.2668,312.795,129.8275" style="stroke:#A80036;stroke-width:1.0;"/><text fill="#000000" font-family="sans-serif" font-size="13" lengthAdjust="spacing" textLength="25" x="350.5" y="96.0669">Run</text><!--MD5=[e3ef946830edb37e0d8fc9d4f6211ab1]
link java to binary--><path d="M177.383,148 C187.132,148 196.881,148 206.63,148 " fill="none" id="java-to-binary" style="stroke:#A80036;stroke-width:1.0;"/><polygon fill="#A80036" points="211.728,148,202.728,144,206.728,148,202.728,152,211.728,148" style="stroke:#A80036;stroke-width:1.0;"/><!--MD5=[038a12a3fe605e435ce08558c7c03a1a]
link binary to archive--><path d="M387.232,148 C397.151,148 407.069,148 416.987,148 " fill="none" id="binary-to-archive" style="stroke:#A80036;stroke-width:1.0;"/><polygon fill="#A80036" points="422.174,148,413.174,144,417.174,148,413.174,152,422.174,148" style="stroke:#A80036;stroke-width:1.0;"/><!--MD5=[c924a424d30c39bd796586a773034501]
@startuml
component "Java Development Kit" as jdk
component "Java Runtime Environment" as jre

file "Kode Java (File.java)" as java
file "Java Binary (File.class)" as binary
file "Java Archive (File.jar)" as archive

jdk -down-> java : Compile
jdk -down-> binary : Binary
jre -down-> archive : Run
jre -down-> binary : Run

java -right-> binary
binary -right-> archive
@enduml

PlantUML version 1.2021.15beta8(Unknown compile time)
(GPL source distribution)
Java Runtime: Java(TM) SE Runtime Environment
JVM: Java HotSpot(TM) 64-Bit Server VM
Default Encoding: UTF-8
Language: en
Country: US
--></g></svg>